<svg width="600" height="450" viewBox="0 0 800 600" fill="none" xmlns="http://www.w3.org/2000/svg" data-reactroot="">
<path d="M778.731 208.563C755.536 316.804 745.476 463.955 539.538 532.121C475.638 553.271 379.821 530.388 283.461 532.121C216.128 532.121 128.939 523.689 96.6096 499.534C28.3513 448.533 8.4193 389.787 24.008 304.803C76.349 19.4602 197.352 166.353 434.856 144.403C644.355 144.403 839.514 -45.2625 778.731 208.563Z" fill="#90cdf4" fill-opacity="0.2"></path>
<path d="M434.876 118.421C450.17 112.512 472.922 104.124 490.319 99.4401C527.983 89.2983 538.022 88.5379 576.784 92.8905C583.753 95.0814 594.628 98.5006 594.628 98.5006C594.628 98.5006 580.83 116.26 570.592 126.331C548.124 148.432 531.362 160.646 504.893 174.495C478.423 188.343 454.797 194.787 444.532 194.458L438.559 194.375L434.333 193.449L426.889 186.808L387.69 237.441C389.517 236.743 403.624 239.848 404.497 242.131L408.581 244.177C408.581 244.177 403.969 248.623 399.532 249.597C387.461 252.248 372.738 253.949 372.738 253.949L367.341 250.115L367.939 241.391L376.652 239.37L388.824 206.181C387.558 208.483 385.768 210.905 383.246 212.973C378.425 216.925 373.732 218.186 367.548 218.972C361.701 219.714 360.877 216.903 354.983 216.905C350.815 216.906 344.407 218.33 344.407 218.33C344.407 218.33 347.979 214.924 350.669 213.32C354.051 211.303 366.126 204.723 366.126 204.723C366.126 204.723 355.024 201.196 350.936 201.573C343.037 202.302 337.751 212.042 327.419 212.392C318.119 212.708 308.089 203.752 308.089 203.752C308.089 203.752 319.991 208.362 327.799 198.837C335.607 189.311 339.087 179.313 346.509 173.228C350.241 170.168 363.143 168.669 363.143 168.669C363.143 168.669 350.021 165.31 347.152 165.601C342.522 166.069 336.877 169.527 336.877 169.527C336.877 169.527 345.594 158.745 355.749 156.428C362.557 154.874 375.431 159.64 375.431 159.64C375.431 159.64 387.468 145.418 394.304 140.058C396.439 138.384 398.944 136.637 401.511 134.952L399.486 109.07L394.232 111.026C392.041 109.573 390.292 108.163 389.769 106.793L388.771 101.614L415.81 85.0657L425.815 83.8587L430.265 87.8367L425.917 94.3448L416.159 99.932L434.876 118.421Z" fill="#3182ce"></path>
<path d="M434.876 118.421C450.17 112.512 472.922 104.124 490.319 99.4401C527.983 89.2983 538.022 88.5379 576.784 92.8905C583.753 95.0814 594.628 98.5006 594.628 98.5006C594.628 98.5006 580.83 116.26 570.592 126.331C548.124 148.432 531.362 160.646 504.893 174.495C478.423 188.343 454.797 194.787 444.532 194.458L437.793 194.293L434.333 193.449L426.889 186.808L387.69 237.441C389.517 236.743 403.624 239.848 404.497 242.131L408.581 244.177C408.581 244.177 403.969 248.623 399.532 249.597C387.461 252.248 372.738 253.949 372.738 253.949L367.341 250.115L367.939 241.391L376.652 239.37L388.824 206.181C387.558 208.483 385.768 210.905 383.246 212.973C378.425 216.925 373.732 218.186 367.548 218.972C361.701 219.714 360.877 216.903 354.983 216.905C350.815 216.906 344.407 218.33 344.407 218.33C344.407 218.33 347.979 214.924 350.669 213.32C354.051 211.303 366.126 204.723 366.126 204.723C366.126 204.723 355.024 201.196 350.936 201.573C343.037 202.302 337.751 212.042 327.419 212.392C318.119 212.708 308.089 203.752 308.089 203.752C308.089 203.752 319.991 208.362 327.799 198.837C335.607 189.311 339.087 179.313 346.509 173.228C350.241 170.168 363.143 168.669 363.143 168.669C363.143 168.669 350.021 165.31 347.152 165.601C342.522 166.069 336.877 169.527 336.877 169.527C336.877 169.527 345.594 158.745 355.749 156.428C362.557 154.874 375.431 159.64 375.431 159.64C375.431 159.64 387.468 145.418 394.304 140.058C396.439 138.384 398.944 136.637 401.511 134.952L399.486 109.07L394.232 111.026C392.041 109.573 390.292 108.163 389.769 106.793L388.771 101.614L415.81 85.0657L425.815 83.8587L430.265 87.8367L425.917 94.3448L416.159 99.932L434.876 118.421Z" fill="black" fill-opacity="0.2"></path>
<path d="M381.46 178.405C375.042 164.177 375.431 159.639 375.431 159.639C375.431 159.639 362.557 154.873 355.749 156.427C345.593 158.745 336.877 169.527 336.877 169.527C336.877 169.527 342.522 166.069 347.152 165.6C350.021 165.31 363.143 168.668 363.143 168.668C363.143 168.668 350.24 170.168 346.508 173.228C339.087 179.313 335.606 189.311 327.799 198.836C319.991 208.362 308.089 203.752 308.089 203.752C308.089 203.752 318.118 212.708 327.418 212.392C337.751 212.041 343.037 202.302 350.936 201.573C355.024 201.196 366.126 204.723 366.126 204.723C366.126 204.723 354.051 211.303 350.669 213.319C347.979 214.923 344.406 218.329 344.406 218.329C344.406 218.329 350.815 216.905 354.983 216.904C360.877 216.902 361.701 219.714 367.548 218.971C373.731 218.185 378.425 216.924 383.245 212.972C385.768 210.904 387.558 208.482 388.823 206.181L395.185 193.696C395.185 193.696 387.879 192.633 381.46 178.405Z" fill="#bee3f8"></path>
<path d="M381.461 178.406C375.042 164.178 375.431 159.64 375.431 159.64C375.431 159.64 366.591 156.195 359.783 157.749C349.628 160.067 348.042 162.118 348.042 162.118C348.042 162.118 357.049 162.773 361.701 162.903C366.313 163.033 373.775 168.191 373.775 168.191C373.775 168.191 356.523 176.199 352.791 179.259C345.37 185.344 346.626 184.748 338.818 194.274C331.01 203.799 321.039 206.071 321.039 206.071C321.039 206.071 321.682 205.947 330.982 205.631C341.315 205.28 345.137 191.984 359.95 190.613C371.611 189.534 376.879 199.31 376.879 199.31C376.879 199.31 376.366 204.717 369.094 209.053C362.957 212.712 348.19 216.832 348.19 216.832C348.19 216.832 356.346 215.235 360.497 214.86C367.436 214.234 370.752 215.719 375.88 212.396C380.608 209.333 378.171 211.544 383.691 206.229C386.041 203.967 387.207 201.661 390.577 198.451L395.185 193.697C395.185 193.697 387.879 192.634 381.461 178.406Z" fill="black" fill-opacity="0.08"></path>
<path d="M434.876 118.421C424.848 122.295 419.261 126.601 419.261 126.601C419.261 126.601 409.468 129.731 401.511 134.952L399.485 109.071L394.231 111.026C392.041 109.573 390.292 108.163 389.768 106.793L388.77 101.614L415.81 85.0658L425.815 83.8588L430.265 87.8369L425.917 94.3449L416.159 99.9321L434.876 118.421Z" fill="#3182ce"></path>
<path d="M395.185 193.697L426.889 186.809L387.69 237.441C389.516 236.743 403.624 239.848 404.496 242.131L408.581 244.177C408.581 244.177 403.969 248.623 399.531 249.598C387.461 252.248 372.738 253.949 372.738 253.949L367.341 250.115L367.939 241.392L376.652 239.37L388.823 206.181L395.185 193.697Z" fill="#3182ce"></path>
<path d="M393.418 248.21C398.882 247.103 404.497 242.132 404.497 242.132L408.581 244.177C408.581 244.177 403.969 248.623 399.531 249.598C387.461 252.248 372.738 253.95 372.738 253.95L367.341 250.115C367.341 250.115 387.953 249.317 393.418 248.21Z" fill="black" fill-opacity="0.2"></path>
<path d="M399.259 102.635L411.399 95.8355L421.131 89.5724L425.815 83.8591L430.265 87.8371L425.917 94.3452L416.159 99.9324L411.399 95.8355L399.259 102.635L399.485 109.071L394.231 111.026C392.041 109.573 390.292 108.163 389.769 106.793L399.259 102.635Z" fill="black" fill-opacity="0.2"></path>
<path d="M502.25 131.503C540.909 113.616 539.873 114.152 576.784 92.8909C583.753 95.0818 588.179 97.5366 588.179 97.5366C588.179 97.5366 578.474 109.93 568.237 120C545.768 142.102 529.006 154.316 502.537 168.165C476.068 182.013 450.47 188.841 442.176 188.128C442.176 188.128 442.11 188.123 441.989 188.111C438.217 187.774 435.45 187.115 433.055 185.775C432.786 185.63 432.529 185.476 432.287 185.313C430.163 183.948 428.291 181.978 426.186 179.128C426.186 179.128 426.186 179.128 426.186 179.128L426.186 179.128C424.732 177.161 423.168 174.774 421.333 171.877C417.639 166.046 412.366 151.875 412.366 151.875C412.366 151.875 409.834 142.641 411.121 135.823C412.407 129.006 419.261 126.601 419.261 126.601C419.261 126.601 420.928 135.271 424.143 139.668C429.879 147.513 440.126 150.025 446.696 150.184C463.145 150.584 481.453 141.125 502.25 131.503Z" fill="#90cdf4"></path>
<path d="M502.25 131.503C540.909 113.616 539.873 114.152 576.784 92.8909C583.753 95.0818 588.179 97.5366 588.179 97.5366C588.179 97.5366 578.474 109.93 568.237 120C545.768 142.102 529.006 154.316 502.537 168.165C476.068 182.013 450.47 188.841 442.176 188.128C442.176 188.128 442.11 188.123 441.989 188.111C438.217 187.774 435.45 187.115 433.055 185.775C432.786 185.63 432.529 185.476 432.287 185.313C430.163 183.948 428.291 181.978 426.186 179.128C426.186 179.128 426.186 179.128 426.186 179.128L426.186 179.128C424.732 177.161 423.168 174.774 421.333 171.877C417.639 166.046 412.366 151.875 412.366 151.875C412.366 151.875 409.834 142.641 411.121 135.823C412.407 129.006 419.261 126.601 419.261 126.601C419.261 126.601 420.928 135.271 424.143 139.668C429.879 147.513 440.126 150.025 446.696 150.184C463.145 150.584 481.453 141.125 502.25 131.503Z" fill="black" fill-opacity="0.2"></path>
<path d="M594.628 98.5006L576.784 92.8906C563.181 100.726 554.731 105.601 547.549 109.529L563.268 133.371C565.652 131.137 568.087 128.795 570.592 126.331C580.83 116.26 594.628 98.5006 594.628 98.5006Z" fill="#bee3f8"></path>
<path d="M594.628 98.5006L576.784 92.8906C563.181 100.726 554.731 105.601 547.549 109.529L563.268 133.371C565.652 131.137 568.087 128.795 570.592 126.331C580.83 116.26 594.628 98.5006 594.628 98.5006Z" fill="black" fill-opacity="0.2"></path>
<path d="M570.592 126.33C580.83 116.26 594.628 98.5001 594.628 98.5001L589.029 96.7398C589.029 96.7398 579.739 108.105 573.27 115.027C568.31 120.335 559.763 128.055 559.763 128.055L563.268 133.371C565.652 131.136 568.087 128.795 570.592 126.33Z" fill="black" fill-opacity="0.2"></path>
<path d="M502.25 131.502C540.909 113.615 539.873 114.151 576.784 92.8901C538.022 88.5375 527.983 89.2979 490.319 99.4397C472.922 104.124 450.17 112.511 434.876 118.42C424.848 122.295 419.261 126.601 419.261 126.601C419.261 126.601 420.928 135.27 424.143 139.667C429.879 147.512 440.126 150.024 446.696 150.184C463.145 150.583 481.453 141.125 502.25 131.502Z" fill="#90cdf4"></path>
<path d="M576.784 92.8902C561.605 91.1857 550.831 90.2653 541.078 90.3853L548.091 109.232C555.157 105.355 563.521 100.53 576.784 92.8902Z" fill="#bee3f8"></path>
<path d="M101.886 574.152L210.601 271.276L216.323 250.458L228.175 250.458L180.766 574.152L101.886 574.152Z" fill="#bee3f8"></path>
<path d="M375.307 574.971L266.592 272.095L260.87 251.277L249.017 251.277L296.427 574.971L375.307 574.971Z" fill="#bee3f8"></path>
<path d="M462.378 88.8755C462.378 88.8755 459.877 82.554 458.687 78.9573C457.132 74.2536 458.188 70.4002 456.863 65.6264C455.022 58.9929 446.251 53.6838 446.251 53.6838C439.491 50.9715 435.047 53.3572 432.843 58.673L433.012 64.465C433.012 64.465 434.589 69.3669 435.951 72.3627C437.781 76.3887 439.683 78.1929 441.591 82.1826C443.87 86.9464 445.094 89.7161 446.307 94.8557C447.635 100.484 447.945 104.596 450.44 111.3C451.837 115.054 456.601 116.466 460.589 116.097C471.807 115.059 479.062 107.863 484.666 104.942C491.687 101.282 491.908 99.1406 499.418 101.648C503.709 103.081 500.095 113.139 500.375 117.654C501.165 130.389 500.782 145.034 500.321 146.58L500.18 146.632C500.227 146.759 500.274 146.736 500.321 146.58L505.05 144.82C507.99 143.726 509.258 125.409 509.236 120.442C509.175 106.606 503.581 97.4929 503.018 90.7228C502.808 88.1931 502.605 87.3793 500.856 86.3957C498.948 85.3223 496.408 86.0097 487.264 88.8455C476.742 92.1088 470.468 96.0062 466.274 94.8488C463.973 94.2141 462.378 88.8755 462.378 88.8755Z" fill="#F7BBBE"></path>
<path d="M485.732 88.6802C475.21 91.9435 470.468 96.0061 466.274 94.8487L446.307 94.8556C447.635 100.484 447.945 104.596 450.44 111.3C451.837 115.054 456.601 116.466 460.589 116.097C471.808 115.059 479.063 107.863 484.667 104.942C491.687 101.281 491.908 99.1405 499.418 101.648C503.709 103.081 500.095 113.139 500.375 117.654C501.166 130.389 500.782 145.033 500.321 146.58L500.18 146.632C500.227 146.759 500.275 146.736 500.321 146.58L505.05 144.82C507.99 143.726 509.259 125.409 509.237 120.442C509.175 106.606 504.422 96.8551 503.859 90.0851C503.649 87.5553 502.365 86.7333 500.616 85.7498C498.707 84.6764 494.876 85.8444 485.732 88.6802Z" fill="#3182ce"></path>
<path d="M485.732 88.6802C475.21 91.9435 470.468 96.0061 466.274 94.8487L446.307 94.8556C447.635 100.484 447.945 104.596 450.44 111.3C451.837 115.054 456.601 116.466 460.589 116.097C471.808 115.059 479.063 107.863 484.667 104.942C491.687 101.281 491.908 99.1405 499.418 101.648C503.709 103.081 500.095 113.139 500.375 117.654C501.166 130.389 500.782 145.033 500.321 146.58L500.18 146.632C500.227 146.759 500.275 146.736 500.321 146.58L505.05 144.82C507.99 143.726 508.105 125.519 508.083 120.551C508.022 106.715 504.422 96.8551 503.859 90.0851C503.649 87.5553 502.365 86.7333 500.616 85.7498C498.707 84.6764 494.876 85.8444 485.732 88.6802Z" fill="black" fill-opacity="0.2"></path>
<path d="M473.527 32.4275C473.638 32.9903 473.752 35.8047 473.752 35.8047L475.778 35.8047C475.778 35.8047 475.441 34.6789 475.44 34.1161C475.44 33.5532 475.229 31.6535 474.877 31.3018C474.526 30.95 473.83 30.08 473.19 29.6132C472.628 29.2037 472.064 29.0503 471.5 29.0503C470.937 29.0503 471.613 30.176 472.176 30.7389C472.738 31.3018 473.415 31.8646 473.527 32.4275Z" fill="#DDA8AA"></path>
<path d="M472.852 32.9906C472.964 33.5535 473.189 38.0564 473.189 38.0564L474.203 36.9307C474.203 36.9307 474.766 35.2421 474.765 34.6792C474.765 34.1163 474.554 32.2166 474.203 31.8649C473.851 31.5131 472.704 31.2059 472.064 30.7391C471.502 30.3297 470.938 30.1763 470.374 30.1763C469.811 30.1763 470.487 31.302 471.05 31.8649C471.612 32.4277 472.74 32.4277 472.852 32.9906Z" fill="#EDB4B7"></path>
<path d="M475.53 49.2337C477.75 65.3141 476.56 59.3055 476.231 71.3466L468.128 69.2388L470.116 49.5755C470.116 49.5755 470.116 45.3698 470.052 44.8615C469.987 44.3533 468.687 42.3103 468.687 42.3103C468.687 42.3103 467.967 41.185 467.967 40.6218C467.967 40.0586 468.329 39.4697 468.688 38.6161C469.119 37.5894 467.561 36.3666 468.688 36.3666C469.814 36.3666 470.346 37.8971 470.051 38.7217C469.874 39.219 469.489 40.059 470.051 40.6218C470.732 41.3023 470.592 41.1031 470.939 41.185C472.381 41.5254 473.753 36.0645 473.753 36.0645C473.753 36.0645 474.069 35.9084 472.381 34.7827C471.756 34.7827 471.414 35.2598 470.939 35.5563C470.262 35.9786 469.25 35.8802 469.25 35.5566C469.25 35.2835 469.76 35.0955 470.051 34.7827C470.361 34.4507 471.031 33.9984 471.502 33.8686C472.2 33.6759 472.064 33.3056 473.19 33.5516C474.315 34.4316 475.811 35.5277 475.935 36.0645C476.059 36.6013 474.66 43.9261 474.769 44.648C474.879 45.3698 475.53 49.2337 475.53 49.2337Z" fill="#F7BBBE"></path>
<path d="M446.337 46.8058C444.87 34.9102 439.22 31.0536 439.22 31.0536C420.031 29.1608 429.098 44.1248 435.775 50.7361C435.775 50.7361 446.597 48.9072 446.337 46.8058Z" fill="#F7BBBE"></path>
<path d="M460.5 78.4914C461.69 82.0882 463.644 86.9402 463.644 86.9402C463.644 86.9402 465.019 92.7016 467.256 91.8694L469.909 95.6291C469.909 95.6291 483.23 95.3771 490.614 93.4669C499.238 91.2358 504.459 91.2489 506.81 94.9382C509.161 98.6275 509.926 111.198 508.708 121.942C507.804 129.923 508.349 136.746 508.515 141.574C508.126 144.065 499.711 144.198 500.284 143.985C500.284 143.985 499.387 141.518 499.478 137.439C499.59 132.48 498.037 124.002 498.206 117.374C498.429 108.625 498.765 108.364 498.019 106.359C496.997 103.613 494.411 105.676 487.391 109.336C481.787 112.258 472.019 116.563 460.8 117.601C456.812 117.97 451.836 115.054 450.439 111.3C449.359 108.396 448.72 105.97 448.222 103.699C447.569 100.728 447.157 98.0211 446.307 94.8554C444.278 87.2974 445.467 88.6753 445.229 86.6481L443.917 87.5897L443.712 87.0387L445.159 86.1863C445.074 85.7056 444.969 85.2194 444.836 84.7217L443.302 85.9367L443.028 85.202L444.649 84.0763C444.465 83.4871 444.237 82.8793 443.954 82.2438L442.424 83.8587L442.001 83.2842L443.748 81.7977C441.84 77.8081 439.696 76.1983 437.866 72.1723C436.504 69.1764 433.011 64.4648 433.011 64.4648L432.843 58.6728C435.047 53.3569 439.491 50.9712 446.25 53.6835C446.25 53.6835 457.29 60.0304 459.131 66.664C460.456 71.4377 458.945 73.7877 460.5 78.4914Z" fill="#3182ce"></path>
<path d="M463.645 86.9402C463.645 86.9402 461.69 82.0881 460.501 78.4913C458.945 73.7876 460.457 71.4377 459.132 66.6639C457.291 60.0304 446.251 53.6835 446.251 53.6835C439.492 50.9712 435.047 53.3569 432.843 58.6727C432.843 58.6727 432.72 62.2207 433.012 64.4647C433.669 69.5184 435.506 72.0324 437.563 76.6952C439.893 81.9774 442.454 84.3635 444.423 89.7909C446.27 94.8847 446.663 108.518 448.594 108.451C448.594 108.451 459.102 110.409 463.198 103.017C467.293 95.6248 470.836 94.6325 470.836 94.6325C469.983 92.3417 463.645 86.9402 463.645 86.9402Z" fill="#90cdf4"></path>
<path d="M468.357 68.1818C469.442 57.3443 468.308 67.9328 468.847 61.5853C471.876 61.214 473.596 60.9766 476.774 60.4126C477.77 74.8883 475.897 77.485 472.725 79.9197C469.036 82.7517 436.198 58.8841 440.868 54.6717C447.277 49.1923 461.668 60.5995 468.357 68.1818Z" fill="#90cdf4"></path>
<path d="M468.357 68.1818C469.442 57.3443 468.308 67.9328 468.847 61.5853C471.876 61.214 473.596 60.9766 476.774 60.4126C477.77 74.8883 475.897 77.485 472.725 79.9197C469.036 82.7517 436.198 58.8841 440.868 54.6717C447.277 49.1923 461.668 60.5995 468.357 68.1818Z" fill="black" fill-opacity="0.2"></path>
<path d="M500.354 145.047C503.018 145.047 505.469 145.524 506.958 141.938C506.958 141.938 509.593 143.594 512.586 143.626C515.954 143.663 518.478 143.295 518.776 144.189C518.956 144.728 519.339 146.554 515.962 147.567C510.334 149.255 509.31 147.111 505.832 148.168C504.143 148.692 504.143 149.817 504.143 149.817L502.455 149.817C502.455 149.817 501.931 149.627 501.329 148.692C501.09 148.32 500.545 148.027 500.204 147.003C499.863 145.98 500.354 145.047 500.354 145.047Z" fill="#3182ce"></path>
<path d="M468.283 68.1164C469.368 57.2789 468.554 65.0252 468.994 61.606L469.953 61.4205L469.127 70.7193C468.826 71.8769 468.4 72.3928 466.324 69.6238C462.343 64.3134 449.362 51.2926 441.188 54.334C447.597 48.8545 461.593 60.5341 468.283 68.1164Z" fill="black" fill-opacity="0.04"></path>
<path d="M440.054 39.7575C441.769 36.6922 441.47 33.1668 441.47 33.1668C438.838 26.0957 433.008 27.847 431.492 28.8294C431.492 28.8294 424.633 31.0982 422.748 35.1149C420.812 39.2407 423.074 39.7336 422.599 44.2663C422.292 47.1907 417.094 48.6781 415.545 51.1775C413.101 55.1218 399.304 51.3351 396.753 55.8702C394.203 60.4053 379.881 58.713 378.023 72.1185C377.466 76.1372 390.829 69.2189 394.332 71.2658C398.081 73.4567 406.598 70.4891 411.379 67.5303C416.16 64.5715 421.083 70.4396 423.207 64.759C425.331 59.0785 440.145 62.5186 439.283 57.147C438.78 54.011 442.786 49.8293 440.595 47.5307C438.873 45.7252 436.803 45.7414 436.857 43.2473C436.896 41.3994 439.151 41.3706 440.054 39.7575Z" fill="#281C11"></path>
<path d="M432.739 47.9165C430.268 46.0598 440.178 32.4736 438.104 30.6721C436.029 28.8705 436.256 34.5532 432.561 37.5137C428.867 40.4741 429.363 43.1755 428.788 45.7275C428.291 47.9335 427.373 47.1832 427.37 48.6598C427.358 54.1554 425.569 56.859 424.647 57.7376C420.847 61.3574 400.449 66.1956 402.005 65.0601C402.53 64.6765 381.803 70.9707 383.44 70.4975C396.718 66.6598 399.032 74.854 406.106 68.1776C413.18 61.5012 413.35 67.8864 417.69 66.2714C424.366 63.7872 435.791 53.4266 431.841 51.3842C430.023 50.4441 434.375 49.146 432.739 47.9165Z" fill="white" fill-opacity="0.06"></path>
<path d="M429.211 73.276C428.587 71.2646 429.615 67.8983 429.615 67.8983C429.615 67.8983 429.825 70.7488 430.773 72.695C431.974 75.1617 435.621 78.4186 435.621 78.4186C435.621 78.4186 430.163 76.3408 429.211 73.276Z" fill="white" fill-opacity="0.14"></path>
<path d="M470.247 56.3589C471.387 51.53 470.204 46.1289 470.204 46.1289C469.95 52.1722 469.623 54.9531 468.962 61.3329C468.962 61.3329 470.085 57.0466 470.247 56.3589Z" fill="black" fill-opacity="0.07"></path>
<path d="M473.631 60.9546C476.815 57.9924 475.458 55.6747 475.292 47.9995C476.006 52.766 476.394 55.4469 476.775 60.4121L473.631 60.9546Z" fill="black" fill-opacity="0.06"></path>
<path d="M458.584 72.1392C463.648 74.2278 461.594 74.8877 471.926 79.616C470.374 81.3438 462.279 75.8872 459.646 74.1488C460.08 78.6285 461.781 82.2787 463.272 86.2864L461.575 86.9181C461.575 86.9181 455.603 71.994 456.099 71.0778C456.378 70.5606 458.584 72.1392 458.584 72.1392Z" fill="black" fill-opacity="0.06"></path>
<rect x="498.026" y="463.93" width="183.404" height="110.417" fill="#90cdf4" fill-opacity="0.2"></rect>
<path d="M334.095 424.072H286.454V573.518H334.095V424.072Z" fill="#90cdf4"></path>
<path d="M286.454 367.81H253.701V573.518L286.454 573.518L286.454 367.81Z" fill="#90cdf4"></path>
<path d="M253.701 469.785H220.948V573.518L253.701 573.518L253.701 469.785Z" fill="#90cdf4"></path>
<path d="M356.426 390.666H334.095L334.095 573.518L356.426 573.518V390.666Z" fill="#90cdf4"></path>
<path d="M418.955 496.157H356.426V573.518L418.955 573.518V496.157Z" fill="#90cdf4"></path>
<path d="M376.384 393.657H433.363V572.396H376.384V393.657Z" fill="#90cdf4"></path>
<path d="M433.363 326.367H472.536V572.396L433.363 572.396L433.363 326.367Z" fill="#90cdf4"></path>
<path d="M472.536 448.33H511.709V572.396L472.536 572.396L472.536 448.33Z" fill="#90cdf4"></path>
<path d="M349.675 353.704H376.384L376.384 572.396L349.675 572.396V353.704Z" fill="#90cdf4"></path>
<path d="M274.89 479.872H349.675V572.396L274.89 572.396V479.872Z" fill="#90cdf4"></path>
<rect x="360.408" y="320.109" width="15.788" height="43.4169" fill="#90cdf4"></rect>
<rect x="386.722" y="367.474" width="15.788" height="43.4169" fill="#90cdf4"></rect>
<path d="M488.703 387.913H558.143V572.363H488.703V387.913Z" fill="#3182ce"></path>
<path d="M558.143 318.473H605.883V572.363L558.143 572.363L558.143 318.473Z" fill="#3182ce"></path>
<path d="M605.883 444.333H653.623V572.363L605.883 572.363L605.883 444.333Z" fill="#3182ce"></path>
<path d="M456.152 346.683H488.703L488.703 572.363L456.152 572.363V346.683Z" fill="#3182ce"></path>
<path d="M365.012 476.883H456.152V572.363L365.012 572.363V476.883Z" fill="#3182ce"></path>
<rect x="557.758" y="284.585" width="15.788" height="43.4169" fill="#3182ce"></rect>
<path d="M472.581 320.757L489.216 347.043H455.945L472.581 320.757Z" fill="#3182ce"></path>
<path d="M463.182 344.87L471.356 333.018L479.939 344.87H463.182Z" fill="black" fill-opacity="0.12"></path>
<path d="M220.418 537.028C201.825 536.605 201.825 564.916 220.418 573.79H651.004C651.004 569.001 671.709 552.24 654.384 544.211C643.342 539.094 649.032 526.464 646.356 525.196C640.299 532.943 625.228 542.774 613.396 520.125C598.607 491.814 605.368 533.647 590.156 548.437C574.943 563.226 579.286 518.951 564.38 520.125C556.947 520.711 554.846 530.129 547.477 528.999C539.979 527.849 541.525 515.545 533.955 515.055C524.697 514.455 526.804 538.914 519.166 533.647C515.997 531.462 517.277 527.362 514.095 525.196C507.095 520.432 505.391 530.605 495.925 537.028C484.094 545.056 496.77 542.521 488.319 520.125C479.868 497.73 470.893 528.999 462.084 533.647C438.233 546.233 447.754 532.379 431.696 520.125C415.639 507.871 407.188 523.928 382.68 537.028C358.171 550.127 381.412 515.055 370.848 506.603C360.284 498.152 336.199 503.223 311.268 520.125C286.337 537.028 305.352 510.406 295.633 503.223C285.969 496.08 277.14 503.143 262.499 514.856L262.251 515.055C250.419 524.52 256.858 504.34 250.419 503.223C239.573 501.342 239.01 513.111 239.01 528.999C239.01 548.859 239.01 537.45 220.418 537.028Z" fill="#3182ce"></path>
<path d="M244.109 541.095C227.769 540.724 227.769 565.605 244.109 573.403H622.522C622.522 569.195 640.719 554.464 625.493 547.408C615.789 542.912 620.789 531.811 618.437 530.697C613.114 537.505 599.869 546.146 589.471 526.241C576.474 501.36 582.416 538.124 569.047 551.122C555.678 564.119 559.494 525.209 546.394 526.241C539.862 526.755 538.016 535.033 531.54 534.039C524.95 533.029 526.309 522.215 519.656 521.785C511.52 521.258 513.371 542.753 506.659 538.124C503.874 536.204 504.999 532.601 502.202 530.697C496.051 526.51 494.552 535.451 486.234 541.095C475.836 548.151 486.977 545.923 479.55 526.241C472.122 506.559 464.235 534.039 456.493 538.124C435.532 549.185 443.899 537.01 429.788 526.241C415.676 515.471 400.118 532.502 378.579 544.014C357.04 555.526 350.421 528.964 350.421 518.732C350.421 506.717 335.256 511.387 323.951 526.241C307.919 547.305 316.414 525.045 307.873 518.732C299.332 512.419 294.714 515.843 281.716 526.241C271.318 534.559 276.134 512.368 270.475 511.387C260.943 509.733 260.449 520.076 260.449 534.039C260.449 551.493 260.449 541.467 244.109 541.095Z" fill="#3182ce"></path>
<path d="M244.111 541.095C227.771 540.724 227.771 565.605 244.111 573.403H622.524C622.524 569.195 640.721 554.464 625.495 547.408C615.791 542.912 620.791 531.811 618.439 530.697C613.116 537.505 599.871 546.146 589.473 526.241C576.476 501.36 582.418 538.124 569.049 551.122C555.68 564.119 559.496 525.209 546.396 526.241C539.864 526.755 538.018 535.033 531.542 534.039C524.952 533.029 526.311 522.215 519.658 521.785C511.521 521.258 513.373 542.753 506.661 538.124C503.876 536.204 505.001 532.601 502.204 530.697C496.053 526.51 494.554 535.451 486.236 541.095C475.838 548.151 486.979 545.923 479.552 526.241C472.124 506.559 464.237 534.039 456.495 538.124C435.534 549.185 443.901 537.01 429.79 526.241C415.678 515.471 400.12 532.502 378.581 544.014C357.042 555.526 350.423 528.964 350.423 518.732C350.423 506.717 335.258 511.387 323.953 526.241C307.921 547.305 316.416 525.045 307.875 518.732C299.334 512.419 294.716 515.843 281.718 526.241C271.32 534.559 276.136 512.368 270.477 511.387C260.945 509.733 260.451 520.076 260.451 534.039C260.451 551.493 260.451 541.467 244.111 541.095Z" fill="black" fill-opacity="0.2"></path>
<rect x="488.519" y="402.496" width="7.35745" height="8.17495" fill="white" fill-opacity="0.78"></rect>
<rect x="498.327" y="402.497" width="7.35745" height="8.17495" fill="white" fill-opacity="0.78"></rect>
<rect x="508.136" y="402.497" width="7.35745" height="8.17495" fill="white" fill-opacity="0.78"></rect>
<rect x="517.945" y="402.497" width="7.35745" height="8.17495" fill="white" fill-opacity="0.78"></rect>
<rect x="488.518" y="414.758" width="7.35745" height="8.17495" fill="white" fill-opacity="0.78"></rect>
<rect x="498.328" y="414.758" width="7.35745" height="8.17495" fill="white" fill-opacity="0.78"></rect>
<rect x="508.136" y="414.758" width="7.35745" height="8.17495" fill="white" fill-opacity="0.78"></rect>
<rect x="517.946" y="414.758" width="7.35745" height="8.17495" fill="white" fill-opacity="0.78"></rect>
<rect x="488.518" y="427.02" width="7.35745" height="8.17495" fill="white" fill-opacity="0.78"></rect>
<rect x="498.328" y="427.019" width="7.35745" height="8.17495" fill="white" fill-opacity="0.78"></rect>
<rect x="508.136" y="427.019" width="7.35745" height="8.17495" fill="white" fill-opacity="0.78"></rect>
<rect x="517.946" y="427.019" width="7.35745" height="8.17495" fill="white" fill-opacity="0.78"></rect>
<rect x="488.518" y="439.28" width="7.35745" height="8.17495" fill="white" fill-opacity="0.78"></rect>
<rect x="498.328" y="439.28" width="7.35745" height="8.17495" fill="white" fill-opacity="0.78"></rect>
<rect x="508.136" y="439.28" width="7.35745" height="8.17495" fill="white" fill-opacity="0.78"></rect>
<rect x="517.946" y="439.28" width="7.35745" height="8.17495" fill="white" fill-opacity="0.78"></rect>
<rect x="569.447" y="331.383" width="5.88596" height="6.53996" fill="white" fill-opacity="0.78"></rect>
<rect x="577.293" y="331.383" width="5.88596" height="6.53996" fill="white" fill-opacity="0.78"></rect>
<rect x="585.14" y="331.383" width="5.88596" height="6.53996" fill="white" fill-opacity="0.78"></rect>
<rect x="592.988" y="331.383" width="5.88596" height="6.53996" fill="white" fill-opacity="0.78"></rect>
<rect x="569.444" y="341.192" width="5.88596" height="6.53996" fill="white" fill-opacity="0.78"></rect>
<rect x="577.289" y="341.192" width="5.88596" height="6.53996" fill="white" fill-opacity="0.78"></rect>
<rect x="585.137" y="341.192" width="5.88596" height="6.53996" fill="white" fill-opacity="0.78"></rect>
<rect x="592.985" y="341.192" width="5.88596" height="6.53996" fill="white" fill-opacity="0.78"></rect>
<rect x="569.444" y="351.001" width="5.88596" height="6.53996" fill="white" fill-opacity="0.78"></rect>
<rect x="577.289" y="351.001" width="5.88596" height="6.53996" fill="white" fill-opacity="0.78"></rect>
<rect x="585.137" y="351.001" width="5.88596" height="6.53996" fill="white" fill-opacity="0.78"></rect>
<rect x="592.985" y="351.001" width="5.88596" height="6.53996" fill="white" fill-opacity="0.78"></rect>
<rect x="569.444" y="360.81" width="5.88596" height="6.53996" fill="white" fill-opacity="0.78"></rect>
<rect x="577.289" y="360.81" width="5.88596" height="6.53996" fill="white" fill-opacity="0.78"></rect>
<rect x="585.137" y="360.81" width="5.88596" height="6.53996" fill="white" fill-opacity="0.78"></rect>
<rect x="592.985" y="360.81" width="5.88596" height="6.53996" fill="white" fill-opacity="0.78"></rect>
<rect x="608.68" y="455.63" width="7.35745" height="8.17495" fill="white" fill-opacity="0.78"></rect>
<rect x="618.489" y="455.629" width="7.35745" height="8.17495" fill="white" fill-opacity="0.78"></rect>
<rect x="628.298" y="455.629" width="7.35745" height="8.17495" fill="white" fill-opacity="0.78"></rect>
<rect x="638.107" y="455.629" width="7.35745" height="8.17495" fill="white" fill-opacity="0.78"></rect>
<rect x="608.68" y="467.89" width="7.35745" height="8.17495" fill="white" fill-opacity="0.78"></rect>
<rect x="618.489" y="467.891" width="7.35745" height="8.17495" fill="white" fill-opacity="0.78"></rect>
<rect x="628.298" y="467.891" width="7.35745" height="8.17495" fill="white" fill-opacity="0.78"></rect>
<rect x="638.107" y="467.891" width="7.35745" height="8.17495" fill="white" fill-opacity="0.78"></rect>
<rect x="608.68" y="480.152" width="7.35745" height="8.17495" fill="white" fill-opacity="0.78"></rect>
<rect x="618.489" y="480.152" width="7.35745" height="8.17495" fill="white" fill-opacity="0.78"></rect>
<rect x="628.298" y="480.152" width="7.35745" height="8.17495" fill="white" fill-opacity="0.78"></rect>
<rect x="638.107" y="480.152" width="7.35745" height="8.17495" fill="white" fill-opacity="0.78"></rect>
<rect x="608.68" y="492.412" width="7.35745" height="8.17495" fill="white" fill-opacity="0.78"></rect>
<rect x="618.489" y="492.412" width="7.35745" height="8.17495" fill="white" fill-opacity="0.78"></rect>
<rect x="628.298" y="492.412" width="7.35745" height="8.17495" fill="white" fill-opacity="0.78"></rect>
<rect x="638.107" y="492.412" width="7.35745" height="8.17495" fill="white" fill-opacity="0.78"></rect>
<rect x="488.519" y="455.63" width="7.35745" height="8.17495" fill="white" fill-opacity="0.78"></rect>
<rect x="498.328" y="455.629" width="7.35745" height="8.17495" fill="white" fill-opacity="0.78"></rect>
<rect x="508.136" y="455.629" width="7.35745" height="8.17495" fill="white" fill-opacity="0.78"></rect>
<rect x="517.946" y="455.629" width="7.35745" height="8.17495" fill="white" fill-opacity="0.78"></rect>
<rect x="488.518" y="467.89" width="7.35745" height="8.17495" fill="white" fill-opacity="0.78"></rect>
<rect x="498.328" y="467.891" width="7.35745" height="8.17495" fill="white" fill-opacity="0.78"></rect>
<rect x="508.136" y="467.891" width="7.35745" height="8.17495" fill="white" fill-opacity="0.78"></rect>
<rect x="517.946" y="467.891" width="7.35745" height="8.17495" fill="white" fill-opacity="0.78"></rect>
<rect x="488.518" y="480.152" width="7.35745" height="8.17495" fill="white" fill-opacity="0.78"></rect>
<rect x="498.328" y="480.152" width="7.35745" height="8.17495" fill="white" fill-opacity="0.78"></rect>
<rect x="508.136" y="480.152" width="7.35745" height="8.17495" fill="white" fill-opacity="0.78"></rect>
<rect x="517.946" y="480.152" width="7.35745" height="8.17495" fill="white" fill-opacity="0.78"></rect>
<rect x="488.518" y="492.412" width="7.35745" height="8.17495" fill="white" fill-opacity="0.78"></rect>
<rect x="498.328" y="492.412" width="7.35745" height="8.17495" fill="white" fill-opacity="0.78"></rect>
<rect x="508.136" y="492.412" width="7.35745" height="8.17495" fill="white" fill-opacity="0.78"></rect>
<rect x="517.946" y="492.412" width="7.35745" height="8.17495" fill="white" fill-opacity="0.78"></rect>
<rect x="375.718" y="401.679" width="4.08747" height="4.54164" fill="white" fill-opacity="0.35"></rect>
<rect x="381.167" y="401.679" width="4.08747" height="4.54164" fill="white" fill-opacity="0.35"></rect>
<rect x="386.617" y="401.679" width="4.08747" height="4.54164" fill="white" fill-opacity="0.35"></rect>
<rect x="392.066" y="401.679" width="4.08747" height="4.54164" fill="white" fill-opacity="0.35"></rect>
<rect x="375.718" y="408.491" width="4.08747" height="4.54164" fill="white" fill-opacity="0.35"></rect>
<rect x="381.167" y="408.492" width="4.08747" height="4.54164" fill="white" fill-opacity="0.35"></rect>
<rect x="386.617" y="408.491" width="4.08747" height="4.54164" fill="white" fill-opacity="0.35"></rect>
<rect x="392.066" y="408.491" width="4.08747" height="4.54164" fill="white" fill-opacity="0.35"></rect>
<rect x="375.718" y="415.303" width="4.08747" height="4.54164" fill="white" fill-opacity="0.35"></rect>
<rect x="381.167" y="415.303" width="4.08747" height="4.54164" fill="white" fill-opacity="0.35"></rect>
<rect x="386.617" y="415.303" width="4.08747" height="4.54164" fill="white" fill-opacity="0.35"></rect>
<rect x="392.066" y="415.303" width="4.08747" height="4.54164" fill="white" fill-opacity="0.35"></rect>
<rect x="375.718" y="422.115" width="4.08747" height="4.54164" fill="white" fill-opacity="0.35"></rect>
<rect x="381.167" y="422.114" width="4.08747" height="4.54164" fill="white" fill-opacity="0.35"></rect>
<rect x="386.617" y="422.114" width="4.08747" height="4.54164" fill="white" fill-opacity="0.35"></rect>
<rect x="392.066" y="422.114" width="4.08747" height="4.54164" fill="white" fill-opacity="0.35"></rect>
<rect x="375.718" y="438.462" width="4.08747" height="4.54164" fill="white" fill-opacity="0.35"></rect>
<rect x="381.167" y="438.462" width="4.08747" height="4.54164" fill="white" fill-opacity="0.35"></rect>
<rect x="386.617" y="438.462" width="4.08747" height="4.54164" fill="white" fill-opacity="0.35"></rect>
<rect x="392.066" y="438.462" width="4.08747" height="4.54164" fill="white" fill-opacity="0.35"></rect>
<rect x="375.718" y="445.274" width="4.08747" height="4.54164" fill="white" fill-opacity="0.35"></rect>
<rect x="381.167" y="445.273" width="4.08747" height="4.54164" fill="white" fill-opacity="0.35"></rect>
<rect x="386.617" y="445.272" width="4.08747" height="4.54164" fill="white" fill-opacity="0.35"></rect>
<rect x="392.066" y="445.272" width="4.08747" height="4.54164" fill="white" fill-opacity="0.35"></rect>
<rect x="375.718" y="452.087" width="4.08747" height="4.54164" fill="white" fill-opacity="0.35"></rect>
<rect x="381.167" y="452.086" width="4.08747" height="4.54164" fill="white" fill-opacity="0.35"></rect>
<rect x="386.617" y="452.086" width="4.08747" height="4.54164" fill="white" fill-opacity="0.35"></rect>
<rect x="392.066" y="452.086" width="4.08747" height="4.54164" fill="white" fill-opacity="0.35"></rect>
<rect x="375.718" y="458.897" width="4.08747" height="4.54164" fill="white" fill-opacity="0.35"></rect>
<rect x="381.167" y="458.896" width="4.08747" height="4.54164" fill="white" fill-opacity="0.35"></rect>
<rect x="386.617" y="458.896" width="4.08747" height="4.54164" fill="white" fill-opacity="0.35"></rect>
<rect x="392.066" y="458.896" width="4.08747" height="4.54164" fill="white" fill-opacity="0.35"></rect>
<rect x="413.316" y="432.743" width="4.08747" height="4.54164" fill="white" fill-opacity="0.35"></rect>
<rect x="418.766" y="432.742" width="4.08747" height="4.54164" fill="white" fill-opacity="0.35"></rect>
<rect x="424.216" y="432.742" width="4.08747" height="4.54164" fill="white" fill-opacity="0.35"></rect>
<rect x="429.665" y="432.742" width="4.08747" height="4.54164" fill="white" fill-opacity="0.35"></rect>
<rect x="413.316" y="439.553" width="4.08747" height="4.54164" fill="white" fill-opacity="0.35"></rect>
<rect x="418.765" y="439.553" width="4.08747" height="4.54164" fill="white" fill-opacity="0.35"></rect>
<rect x="424.215" y="439.552" width="4.08747" height="4.54164" fill="white" fill-opacity="0.35"></rect>
<rect x="429.664" y="439.552" width="4.08747" height="4.54164" fill="white" fill-opacity="0.35"></rect>
<rect x="413.316" y="446.366" width="4.08747" height="4.54164" fill="white" fill-opacity="0.35"></rect>
<rect x="418.765" y="446.367" width="4.08747" height="4.54164" fill="white" fill-opacity="0.35"></rect>
<rect x="424.215" y="446.367" width="4.08747" height="4.54164" fill="white" fill-opacity="0.35"></rect>
<rect x="429.664" y="446.367" width="4.08747" height="4.54164" fill="white" fill-opacity="0.35"></rect>
<rect x="413.316" y="453.177" width="4.08747" height="4.54164" fill="white" fill-opacity="0.35"></rect>
<rect x="418.765" y="453.177" width="4.08747" height="4.54164" fill="white" fill-opacity="0.35"></rect>
<rect x="424.215" y="453.177" width="4.08747" height="4.54164" fill="white" fill-opacity="0.35"></rect>
<rect x="429.664" y="453.177" width="4.08747" height="4.54164" fill="white" fill-opacity="0.35"></rect>
<rect x="259.645" y="382.884" width="4.08747" height="4.54164" fill="white" fill-opacity="0.35"></rect>
<rect x="265.092" y="382.881" width="4.08747" height="4.54164" fill="white" fill-opacity="0.35"></rect>
<rect x="270.542" y="382.881" width="4.08747" height="4.54164" fill="white" fill-opacity="0.35"></rect>
<rect x="275.991" y="382.881" width="4.08747" height="4.54164" fill="white" fill-opacity="0.35"></rect>
<rect x="259.645" y="389.694" width="4.08747" height="4.54164" fill="white" fill-opacity="0.35"></rect>
<rect x="265.094" y="389.692" width="4.08747" height="4.54164" fill="white" fill-opacity="0.35"></rect>
<rect x="270.544" y="389.692" width="4.08747" height="4.54164" fill="white" fill-opacity="0.35"></rect>
<rect x="275.993" y="389.692" width="4.08747" height="4.54164" fill="white" fill-opacity="0.35"></rect>
<rect x="259.645" y="396.506" width="4.08747" height="4.54164" fill="white" fill-opacity="0.35"></rect>
<rect x="265.094" y="396.505" width="4.08747" height="4.54164" fill="white" fill-opacity="0.35"></rect>
<rect x="270.544" y="396.505" width="4.08747" height="4.54164" fill="white" fill-opacity="0.35"></rect>
<rect x="275.993" y="396.505" width="4.08747" height="4.54164" fill="white" fill-opacity="0.35"></rect>
<rect x="259.645" y="403.315" width="4.08747" height="4.54164" fill="white" fill-opacity="0.35"></rect>
<rect x="265.094" y="403.315" width="4.08747" height="4.54164" fill="white" fill-opacity="0.35"></rect>
<rect x="270.544" y="403.315" width="4.08747" height="4.54164" fill="white" fill-opacity="0.35"></rect>
<rect x="275.993" y="403.315" width="4.08747" height="4.54164" fill="white" fill-opacity="0.35"></rect>
<rect x="259.646" y="413.941" width="4.08747" height="4.54164" fill="white" fill-opacity="0.35"></rect>
<rect x="265.093" y="413.941" width="4.08747" height="4.54164" fill="white" fill-opacity="0.35"></rect>
<rect x="270.543" y="413.941" width="4.08747" height="4.54164" fill="white" fill-opacity="0.35"></rect>
<rect x="275.992" y="413.941" width="4.08747" height="4.54164" fill="white" fill-opacity="0.35"></rect>
<rect x="259.645" y="420.751" width="4.08747" height="4.54164" fill="white" fill-opacity="0.35"></rect>
<rect x="265.094" y="420.751" width="4.08747" height="4.54164" fill="white" fill-opacity="0.35"></rect>
<rect x="270.544" y="420.751" width="4.08747" height="4.54164" fill="white" fill-opacity="0.35"></rect>
<rect x="275.993" y="420.751" width="4.08747" height="4.54164" fill="white" fill-opacity="0.35"></rect>
<rect x="259.645" y="427.564" width="4.08747" height="4.54164" fill="white" fill-opacity="0.35"></rect>
<rect x="265.094" y="427.564" width="4.08747" height="4.54164" fill="white" fill-opacity="0.35"></rect>
<rect x="270.544" y="427.564" width="4.08747" height="4.54164" fill="white" fill-opacity="0.35"></rect>
<rect x="275.993" y="427.564" width="4.08747" height="4.54164" fill="white" fill-opacity="0.35"></rect>
<rect x="259.645" y="434.376" width="4.08747" height="4.54164" fill="white" fill-opacity="0.35"></rect>
<rect x="265.094" y="434.375" width="4.08747" height="4.54164" fill="white" fill-opacity="0.35"></rect>
<rect x="270.544" y="434.375" width="4.08747" height="4.54164" fill="white" fill-opacity="0.35"></rect>
<rect x="275.993" y="434.375" width="4.08747" height="4.54164" fill="white" fill-opacity="0.35"></rect>
<rect x="259.645" y="445.001" width="4.08747" height="4.54164" fill="white" fill-opacity="0.35"></rect>
<rect x="265.094" y="445.001" width="4.08747" height="4.54164" fill="white" fill-opacity="0.35"></rect>
<rect x="270.544" y="445.001" width="4.08747" height="4.54164" fill="white" fill-opacity="0.35"></rect>
<rect x="275.993" y="445.001" width="4.08747" height="4.54164" fill="white" fill-opacity="0.35"></rect>
<rect x="259.645" y="451.813" width="4.08747" height="4.54164" fill="white" fill-opacity="0.35"></rect>
<rect x="265.094" y="451.813" width="4.08747" height="4.54164" fill="white" fill-opacity="0.35"></rect>
<rect x="270.544" y="451.812" width="4.08747" height="4.54164" fill="white" fill-opacity="0.35"></rect>
<rect x="275.993" y="451.812" width="4.08747" height="4.54164" fill="white" fill-opacity="0.35"></rect>
<rect x="259.645" y="458.626" width="4.08747" height="4.54164" fill="white" fill-opacity="0.35"></rect>
<rect x="265.094" y="458.626" width="4.08747" height="4.54164" fill="white" fill-opacity="0.35"></rect>
<rect x="270.544" y="458.626" width="4.08747" height="4.54164" fill="white" fill-opacity="0.35"></rect>
<rect x="275.993" y="458.626" width="4.08747" height="4.54164" fill="white" fill-opacity="0.35"></rect>
<rect x="259.645" y="465.437" width="4.08747" height="4.54164" fill="white" fill-opacity="0.35"></rect>
<rect x="265.094" y="465.437" width="4.08747" height="4.54164" fill="white" fill-opacity="0.35"></rect>
<rect x="270.544" y="465.437" width="4.08747" height="4.54164" fill="white" fill-opacity="0.35"></rect>
<rect x="275.993" y="465.437" width="4.08747" height="4.54164" fill="white" fill-opacity="0.35"></rect>
<rect x="317.682" y="445.001" width="4.08747" height="4.54164" fill="white" fill-opacity="0.35"></rect>
<rect x="323.131" y="445.001" width="4.08747" height="4.54164" fill="white" fill-opacity="0.35"></rect>
<rect x="328.581" y="445.001" width="4.08747" height="4.54164" fill="white" fill-opacity="0.35"></rect>
<rect x="334.03" y="445.001" width="4.08747" height="4.54164" fill="white" fill-opacity="0.35"></rect>
<rect x="317.682" y="451.814" width="4.08747" height="4.54164" fill="white" fill-opacity="0.35"></rect>
<rect x="323.131" y="451.813" width="4.08747" height="4.54164" fill="white" fill-opacity="0.35"></rect>
<rect x="328.581" y="451.812" width="4.08747" height="4.54164" fill="white" fill-opacity="0.35"></rect>
<rect x="334.03" y="451.812" width="4.08747" height="4.54164" fill="white" fill-opacity="0.35"></rect>
<rect x="317.682" y="458.626" width="4.08747" height="4.54164" fill="white" fill-opacity="0.35"></rect>
<rect x="323.131" y="458.626" width="4.08747" height="4.54164" fill="white" fill-opacity="0.35"></rect>
<rect x="328.581" y="458.626" width="4.08747" height="4.54164" fill="white" fill-opacity="0.35"></rect>
<rect x="334.03" y="458.626" width="4.08747" height="4.54164" fill="white" fill-opacity="0.35"></rect>
<rect x="317.682" y="465.437" width="4.08747" height="4.54164" fill="white" fill-opacity="0.35"></rect>
<rect x="323.131" y="465.437" width="4.08747" height="4.54164" fill="white" fill-opacity="0.35"></rect>
<rect x="328.581" y="465.437" width="4.08747" height="4.54164" fill="white" fill-opacity="0.35"></rect>
<rect x="334.03" y="465.437" width="4.08747" height="4.54164" fill="white" fill-opacity="0.35"></rect>
<path fill-rule="evenodd" clip-rule="evenodd" d="M213.871 231.659H207.332V573.336H213.871V252.212H259.819C261.644 252.212 263.122 250.733 263.122 248.909C263.122 247.085 261.644 245.606 259.819 245.606H213.871V231.659Z" fill="#3182ce"></path>
<rect x="207.331" y="231.659" width="3.67044" height="337.68" fill="#3182ce"></rect>
<path d="M255.778 252.576C255.778 257.734 253.806 262.681 250.295 266.328C246.785 269.975 242.023 272.024 237.059 272.024C232.094 272.024 227.333 269.975 223.822 266.328C220.312 262.681 218.339 257.734 218.339 252.576L237.059 252.576H255.778Z" fill="#F7FAFE"></path>
<path d="M228.619 252.214L238.162 271.667C222.305 270.786 218.586 258.331 218.708 252.214H228.619Z" fill="#311F9E" fill-opacity="0.04"></path>
<path d="M97.7979 574.152L206.513 271.276L212.235 250.458H253.923L402.691 574.152H97.7979Z" fill="#bee3f8" fill-opacity="0.68"></path>
<path d="M735.476 161.609C751.197 161.609 763.986 174.398 763.986 190.118C763.986 205.839 751.197 218.628 735.476 218.628C719.756 218.628 706.967 205.839 706.967 190.118C706.967 174.398 719.756 161.609 735.476 161.609ZM735.476 150.512C713.602 150.512 695.87 168.244 695.87 190.118C695.87 211.992 713.602 229.725 735.476 229.725C757.35 229.725 775.083 211.992 775.083 190.118C775.083 168.244 757.35 150.512 735.476 150.512Z" fill="#3182ce"></path>
<path d="M741.701 144.713H729.255V155.338H741.701V144.713Z" fill="#3182ce"></path>
<path d="M741.697 224.413H729.251V235.038H741.697V224.413Z" fill="#3182ce"></path>
<path d="M763.006 153.545L755.493 161.058L764.294 169.859L771.807 162.346L763.006 153.545Z" fill="#3182ce"></path>
<path d="M706.65 209.901L699.137 217.414L707.938 226.214L715.45 218.702L706.65 209.901Z" fill="#3182ce"></path>
<path d="M780.639 183.654H770.014V196.1H780.639V183.654Z" fill="#3182ce"></path>
<path d="M700.935 183.654H690.31V196.1H700.935V183.654Z" fill="#3182ce"></path>
<path d="M764.297 209.91L755.496 218.711L763.009 226.224L771.81 217.423L764.297 209.91Z" fill="#3182ce"></path>
<path d="M707.939 153.545L699.138 162.346L706.651 169.859L715.451 161.058L707.939 153.545Z" fill="#3182ce"></path>
<path d="M669.747 124.8C681.055 124.8 690.255 134 690.255 145.308C690.255 156.616 681.055 165.816 669.747 165.816C658.439 165.816 649.239 156.616 649.239 145.308C649.239 134 658.439 124.8 669.747 124.8ZM669.747 116.818C654.012 116.818 641.257 129.573 641.257 145.308C641.257 161.042 654.012 173.798 669.747 173.798C685.482 173.798 698.237 161.042 698.237 145.308C698.237 129.573 685.482 116.818 669.747 116.818Z" fill="#3182ce"></path>
<path d="M675.887 111.219H663.608V121.701H675.887V111.219Z" fill="#3182ce"></path>
<path d="M675.884 168.543H663.606V179.025H675.884V168.543Z" fill="#3182ce"></path>
<path d="M689.38 116.812L681.969 124.224L690.651 132.906L698.063 125.495L689.38 116.812Z" fill="#3182ce"></path>
<path d="M648.843 157.354L641.431 164.766L650.114 173.449L657.525 166.037L648.843 157.354Z" fill="#3182ce"></path>
<path d="M703.654 138.985H693.173V151.264H703.654V138.985Z" fill="#3182ce"></path>
<path d="M646.322 138.986H635.84V151.265H646.322V138.986Z" fill="#3182ce"></path>
<path d="M690.653 157.358L681.971 166.041L689.383 173.453L698.065 164.77L690.653 157.358Z" fill="#3182ce"></path>
<path d="M650.112 116.818L641.429 125.5L648.841 132.912L657.524 124.23L650.112 116.818Z" fill="#3182ce"></path>
<circle cx="735.473" cy="190.117" r="15.455" fill="#90cdf4"></circle>
<circle cx="735.476" cy="189.878" r="10.8525" fill="#bee3f8"></circle>
<path d="M10.287 166.612L23.5068 127.325C24.4395 124.554 27.3885 123.007 30.1989 123.815L101.92 144.447C104.887 145.301 106.559 148.441 105.611 151.379L92.1388 193.143C91.2115 196.017 88.1286 197.595 85.2547 196.666L13.7861 173.557C10.8894 172.62 9.3161 169.497 10.287 166.612Z" fill="#3182ce"></path>
<path d="M84.5898 150.76L97.71 112.656C98.6602 109.897 101.61 108.37 104.411 109.189L174.677 129.717C177.651 130.586 179.309 133.75 178.33 136.69L165.207 176.125C164.267 178.95 161.239 180.503 158.396 179.619L88.1344 157.759C85.1904 156.843 83.586 153.675 84.5898 150.76Z" fill="#90cdf4"></path>
<path fill-rule="evenodd" clip-rule="evenodd" d="M452.894 32.256C451.216 32.1035 449.503 32.0434 447.772 32.0911C447.345 32.1029 446.989 31.7661 446.978 31.3388C446.966 30.9116 447.303 30.5557 447.73 30.5439C449.524 30.4945 451.298 30.5569 453.034 30.7146C453.459 30.7533 453.773 31.1297 453.734 31.5553C453.696 31.981 453.319 32.2947 452.894 32.256ZM443.323 31.6686C443.388 32.0909 443.1 32.4867 442.677 32.5526C441.011 32.8125 439.346 33.1842 437.697 33.6806C437.288 33.8038 436.856 33.5719 436.733 33.1626C436.61 32.7534 436.841 32.3217 437.251 32.1985C438.971 31.6806 440.706 31.2937 442.439 31.0233C442.861 30.9574 443.257 31.2463 443.323 31.6686ZM457.364 32.0939C457.451 31.6753 457.86 31.4059 458.279 31.4921C460.06 31.8593 461.776 32.3196 463.403 32.8525C463.809 32.9855 464.03 33.4226 463.897 33.8288C463.764 34.235 463.327 34.4564 462.921 34.3233C461.349 33.8086 459.69 33.3633 457.966 33.008C457.548 32.9218 457.278 32.5125 457.364 32.0939ZM433.305 34.4712C433.486 34.8581 433.32 35.3189 432.933 35.5004C431.423 36.2087 429.939 37.0394 428.494 38.0037C428.138 38.241 427.658 38.1451 427.421 37.7896C427.183 37.4341 427.279 36.9536 427.635 36.7163C429.145 35.708 430.697 34.8395 432.276 34.0991C432.663 33.9176 433.123 34.0842 433.305 34.4712ZM467.308 35.1784C467.491 34.7921 467.952 34.6271 468.339 34.81C468.783 35.0201 468.79 35.3219 469.25 35.5785C469.752 35.8589 470.357 35.8397 470.704 36.0367C471.076 36.2478 471.206 36.7202 470.995 37.0918C470.784 37.4635 470.184 37.7032 469.813 37.4921C469.476 37.301 469.605 36.6644 469.25 36.479C468.853 36.2722 468.096 36.4075 467.676 36.2089C467.29 36.0261 467.125 35.5647 467.308 35.1784ZM424.531 40.045C424.818 40.3619 424.793 40.8513 424.476 41.1381C423.854 41.7013 423.242 42.2952 422.641 42.9206C422.051 43.5352 421.482 44.1496 420.932 44.7629C420.646 45.0811 420.157 45.1077 419.839 44.8223C419.521 44.5369 419.494 44.0476 419.78 43.7294C420.341 43.1036 420.922 42.4764 421.525 41.8488C422.15 41.1972 422.788 40.5781 423.438 39.9903C423.755 39.7036 424.244 39.728 424.531 40.045ZM417.564 47.5252C417.899 47.791 417.955 48.2778 417.689 48.6125C416.611 49.9714 415.605 51.3158 414.647 52.6364C414.396 52.9824 413.912 53.0594 413.566 52.8084C413.22 52.5575 413.143 52.0736 413.394 51.7276C414.361 50.3943 415.381 49.0312 416.477 47.6502C416.743 47.3155 417.23 47.2595 417.564 47.5252ZM411.532 55.6846C411.882 55.9299 411.967 56.4126 411.721 56.7625C410.717 58.195 409.739 59.5864 408.758 60.9135C408.504 61.2571 408.019 61.3298 407.676 61.0757C407.332 60.8216 407.259 60.337 407.514 59.9933C408.481 58.6843 409.448 57.3083 410.454 55.8739C410.699 55.524 411.182 55.4392 411.532 55.6846ZM405.484 63.8391C405.805 64.1211 405.837 64.6101 405.555 64.9312C404.397 66.2502 403.18 67.4729 401.857 68.5721C401.528 68.8451 401.04 68.7999 400.767 68.4711C400.494 68.1423 400.539 67.6544 400.868 67.3813C402.116 66.3448 403.275 65.182 404.392 63.9098C404.674 63.5887 405.163 63.557 405.484 63.8391ZM346.579 68.3976C346.582 68.825 346.238 69.1738 345.81 69.1766C343.833 69.1896 342.052 69.3318 340.45 69.5871C340.028 69.6543 339.631 69.3667 339.564 68.9446C339.496 68.5225 339.784 68.1258 340.206 68.0586C341.896 67.7894 343.756 67.6423 345.8 67.6288C346.228 67.626 346.576 67.9702 346.579 68.3976ZM350.508 68.5839C350.547 68.1583 350.924 67.8454 351.35 67.8849C353.075 68.045 354.905 68.2818 356.848 68.6001C357.269 68.6693 357.555 69.0672 357.486 69.489C357.417 69.9108 357.019 70.1967 356.597 70.1275C354.687 69.8144 352.892 69.5825 351.207 69.426C350.781 69.3865 350.468 69.0095 350.508 68.5839ZM335.77 69.9791C335.937 70.3724 335.754 70.8269 335.361 70.9942C333.589 71.7483 332.168 72.7091 331.038 73.8263C330.734 74.1268 330.244 74.124 329.943 73.8201C329.643 73.5162 329.646 73.0262 329.95 72.7257C331.229 71.4604 332.818 70.3943 334.754 69.5701C335.148 69.4027 335.602 69.5858 335.77 69.9791ZM361.367 70.2362C361.458 69.8186 361.871 69.5538 362.288 69.6448C363.171 69.8371 364.073 70.0441 364.996 70.266C365.844 70.4701 366.674 70.6614 367.485 70.8404C367.902 70.9325 368.166 71.3456 368.074 71.7629C367.982 72.1803 367.569 72.4439 367.151 72.3518C366.33 72.1707 365.492 71.9771 364.634 71.7709C363.722 71.5515 362.83 71.347 361.959 71.1571C361.541 71.0661 361.276 70.6538 361.367 70.2362ZM397.838 70.4315C398.035 70.8108 397.887 71.278 397.508 71.4749C396.023 72.2454 394.408 72.8811 392.622 73.364C392.21 73.4756 391.785 73.2316 391.673 72.819C391.562 72.4064 391.806 71.9815 392.218 71.8699C393.899 71.4154 395.41 70.8196 396.795 70.1011C397.174 69.9042 397.641 70.0521 397.838 70.4315ZM371.515 72.4463C371.588 72.0252 371.989 71.7431 372.41 71.8161C374.17 72.1214 375.83 72.3591 377.401 72.5331C377.826 72.5801 378.132 72.9627 378.085 73.3875C378.038 73.8123 377.655 74.1185 377.231 74.0714C375.626 73.8936 373.933 73.6513 372.146 73.3411C371.724 73.268 371.442 72.8674 371.515 72.4463ZM388.215 73.4251C388.255 73.8505 387.944 74.2284 387.518 74.2692C385.919 74.4221 384.205 74.4787 382.359 74.432C381.932 74.4212 381.594 74.0661 381.605 73.6388C381.616 73.2115 381.971 72.8739 382.398 72.8847C384.189 72.93 385.84 72.8749 387.371 72.7284C387.796 72.6877 388.174 72.9996 388.215 73.4251ZM327.801 77.1243C328.199 77.2804 328.395 77.7295 328.239 78.1274C327.623 79.6966 327.273 81.4212 327.137 83.2524C327.105 83.6786 326.734 83.9985 326.308 83.9669C325.882 83.9353 325.562 83.5642 325.593 83.1379C325.738 81.1852 326.115 79.3035 326.798 77.5621C326.954 77.1642 327.403 76.9682 327.801 77.1243ZM326.419 87.9102C326.844 87.8634 327.226 88.1699 327.273 88.5947C327.37 89.4777 327.5 90.3691 327.657 91.2638C327.731 91.6847 327.449 92.0859 327.029 92.1597C326.608 92.2336 326.206 91.9522 326.133 91.5312C325.97 90.6074 325.836 89.6831 325.735 88.7641C325.688 88.3393 325.994 87.957 326.419 87.9102Z" fill="#90cdf4"></path>
<path fill-rule="evenodd" clip-rule="evenodd" d="M314.237 107.577C312.965 108.682 311.611 109.733 310.18 110.707C309.826 110.947 309.735 111.428 309.975 111.782C310.216 112.135 310.697 112.227 311.05 111.986C312.534 110.977 313.937 109.889 315.252 108.745C315.575 108.465 315.609 107.976 315.329 107.653C315.048 107.331 314.559 107.296 314.237 107.577ZM306.341 113.502C306.148 113.121 305.682 112.969 305.301 113.163C303.798 113.927 302.23 114.6 300.602 115.162C300.198 115.301 299.983 115.742 300.123 116.146C300.262 116.55 300.703 116.764 301.107 116.625C302.805 116.038 304.439 115.337 306.002 114.543C306.383 114.349 306.535 113.883 306.341 113.502ZM318.636 105.192C318.951 105.481 319.441 105.46 319.73 105.146C320.96 103.805 322.082 102.428 323.09 101.044C323.341 100.699 323.265 100.215 322.92 99.9633C322.574 99.7118 322.09 99.7879 321.838 100.133C320.865 101.47 319.78 102.802 318.589 104.099C318.3 104.414 318.321 104.903 318.636 105.192ZM296.577 117.09C296.498 116.67 296.093 116.394 295.673 116.473C294.034 116.782 292.345 116.977 290.609 117.04C290.182 117.055 289.848 117.414 289.864 117.841C289.879 118.269 290.238 118.602 290.665 118.587C292.48 118.52 294.247 118.317 295.96 117.994C296.38 117.915 296.657 117.51 296.577 117.09ZM325.245 97.4534C325.619 97.6598 326.09 97.5236 326.296 97.1493C326.534 96.7191 326.453 96.7678 326.675 96.2907C326.919 95.7694 327.331 95.133 327.497 94.7705C327.675 94.3818 327.504 93.9226 327.116 93.7447C326.727 93.5669 326.1 93.7231 325.923 94.1118C325.762 94.4635 325.73 94.8066 325.55 95.165C325.349 95.5649 325.165 95.9956 324.941 96.4021C324.735 96.7764 324.871 97.2471 325.245 97.4534ZM286.201 117.703C286.248 117.278 285.942 116.895 285.517 116.848C284.682 116.756 283.839 116.632 282.986 116.476C282.148 116.323 281.327 116.158 280.522 115.982C280.104 115.891 279.692 116.156 279.601 116.573C279.51 116.991 279.774 117.403 280.192 117.494C281.013 117.673 281.851 117.842 282.707 117.999C283.596 118.161 284.475 118.29 285.346 118.387C285.771 118.434 286.154 118.128 286.201 117.703ZM276.175 115.712C276.291 115.301 276.051 114.873 275.64 114.757C273.97 114.286 272.367 113.784 270.818 113.274C270.412 113.14 269.975 113.361 269.841 113.767C269.707 114.173 269.928 114.61 270.334 114.744C271.898 115.259 273.523 115.768 275.22 116.247C275.631 116.363 276.058 116.123 276.175 115.712ZM266.509 112.624C266.649 112.22 266.435 111.779 266.032 111.639C264.379 111.065 262.772 110.508 261.2 110.006C260.793 109.876 260.357 110.1 260.227 110.508C260.097 110.915 260.322 111.35 260.729 111.48C262.28 111.976 263.869 112.526 265.524 113.101C265.927 113.241 266.368 113.028 266.509 112.624ZM256.833 109.549C256.929 109.132 256.668 108.717 256.252 108.621C254.541 108.229 252.839 107.949 251.122 107.832C250.696 107.803 250.327 108.125 250.298 108.552C250.269 108.978 250.591 109.347 251.017 109.377C252.636 109.487 254.256 109.752 255.906 110.13C256.323 110.226 256.738 109.965 256.833 109.549ZM206.394 140.313C206.146 139.965 205.663 139.883 205.315 140.131C203.704 141.277 202.176 142.204 200.727 142.934C200.345 143.127 200.192 143.592 200.384 143.974C200.577 144.355 201.042 144.509 201.424 144.316C202.951 143.546 204.546 142.577 206.212 141.392C206.56 141.145 206.642 140.661 206.394 140.313ZM209.471 137.864C209.752 138.186 210.241 138.219 210.563 137.938C211.868 136.799 213.214 135.536 214.603 134.141C214.905 133.839 214.904 133.349 214.601 133.047C214.298 132.745 213.808 132.746 213.506 133.049C212.141 134.421 210.821 135.659 209.545 136.772C209.223 137.053 209.19 137.542 209.471 137.864ZM196.702 145.354C196.608 144.938 196.193 144.676 195.776 144.77C193.898 145.195 192.184 145.248 190.614 145.003C190.191 144.937 189.796 145.226 189.73 145.648C189.664 146.07 189.953 146.466 190.375 146.532C192.153 146.809 194.065 146.745 196.118 146.28C196.535 146.186 196.796 145.771 196.702 145.354ZM217.312 130.17C217.63 130.456 218.119 130.429 218.404 130.111C219.008 129.439 219.619 128.743 220.237 128.023C220.806 127.361 221.366 126.721 221.919 126.101C222.204 125.782 222.176 125.293 221.857 125.009C221.538 124.724 221.049 124.752 220.765 125.071C220.205 125.698 219.638 126.346 219.063 127.014C218.452 127.726 217.848 128.414 217.252 129.078C216.967 129.396 216.993 129.885 217.312 130.17ZM246.775 108.675C246.713 108.252 246.32 107.96 245.897 108.022C244.242 108.266 242.56 108.696 240.83 109.348C240.43 109.499 240.228 109.946 240.379 110.346C240.53 110.746 240.976 110.947 241.376 110.797C243.005 110.182 244.58 109.781 246.123 109.554C246.545 109.491 246.838 109.098 246.775 108.675ZM224.249 122.441C224.554 122.74 225.044 122.734 225.343 122.429C226.591 121.152 227.799 119.987 228.971 118.927C229.288 118.641 229.313 118.151 229.026 117.834C228.739 117.517 228.25 117.493 227.933 117.779C226.735 118.863 225.505 120.049 224.236 121.347C223.937 121.652 223.943 122.142 224.249 122.441ZM237.219 111.877C237.004 111.509 236.53 111.385 236.161 111.601C234.774 112.412 233.351 113.369 231.881 114.487C231.541 114.745 231.475 115.231 231.734 115.571C231.992 115.911 232.478 115.977 232.818 115.719C234.244 114.634 235.615 113.713 236.942 112.936C237.311 112.72 237.435 112.246 237.219 111.877ZM186.059 144.222C186.29 143.862 186.187 143.383 185.827 143.152C184.41 142.24 183.117 141.046 181.936 139.64C181.661 139.313 181.172 139.271 180.845 139.546C180.518 139.821 180.476 140.309 180.751 140.636C182.011 142.135 183.417 143.441 184.989 144.453C185.349 144.685 185.828 144.581 186.059 144.222ZM178.628 136.282C179 136.072 179.131 135.6 178.92 135.228C178.483 134.455 178.067 133.656 177.67 132.839C177.484 132.454 177.021 132.293 176.636 132.48C176.252 132.666 176.091 133.129 176.278 133.513C176.687 134.358 177.118 135.186 177.574 135.99C177.784 136.362 178.257 136.493 178.628 136.282Z" fill="#90cdf4"></path>
</svg>